<svg xmlns="http://www.w3.org/2000/svg" width="1635" height="641" viewBox="0 0 1635 641">
<g>
<path d="M 1362.68 485.46 C1362.19,486.94 1298.38,487.42 1297.47,485.95 C1297.44,485.90 1297.41,485.85 1297.38,485.80 C1297.18,485.49 1297.04,485.26 1297.05,485.04 C1297.07,484.42 1298.29,483.85 1302.86,481.55 C1306.14,479.90 1311.59,475.46 1316.89,470.11 C1325.89,461.04 1330.71,453.40 1335.44,440.76 C1336.73,437.32 1339.80,429.33 1342.27,423.00 C1354.97,390.50 1366.48,360.76 1372.38,345.26 C1374.31,340.17 1377.44,332.07 1379.34,327.26 C1381.23,322.44 1383.91,315.58 1385.29,312.00 C1386.67,308.42 1390.97,297.40 1394.84,287.50 C1398.71,277.60 1403.43,265.45 1405.33,260.50 C1407.23,255.55 1411.58,244.30 1414.99,235.50 C1421.74,218.09 1423.22,214.24 1431.04,194.00 C1433.91,186.57 1439.06,173.30 1442.48,164.50 C1445.90,155.70 1448.98,147.72 1449.31,146.77 C1450.37,143.77 1452.44,145.81 1454.89,152.27 C1456.19,155.69 1460.17,165.93 1463.72,175.00 C1474.15,201.65 1476.31,207.20 1486.47,233.50 C1491.78,247.25 1496.98,260.52 1498.02,263.00 C1499.07,265.48 1502.67,274.70 1506.03,283.50 C1509.39,292.30 1513.66,303.33 1515.52,308.00 C1517.38,312.67 1520.97,321.90 1523.51,328.50 C1526.04,335.10 1528.97,342.52 1530.03,345.00 C1531.08,347.48 1534.24,355.58 1537.04,363.00 C1539.84,370.42 1544.09,381.45 1546.48,387.50 L 1556.34 412.50 C1559.38,420.20 1563.53,430.77 1565.56,436.00 C1570.45,448.54 1575.09,457.68 1580.70,465.83 C1586.73,474.59 1589.43,477.42 1595.77,481.63 C1598.67,483.56 1600.78,485.55 1600.46,486.07 C1599.67,487.34 1510.31,487.32 1509.53,486.04 C1509.20,485.52 1510.19,484.44 1511.72,483.65 C1515.26,481.81 1519.97,475.96 1523.53,468.97 C1527.21,461.74 1527.26,452.76 1523.68,442.00 C1518.60,426.70 1508.68,400.85 1498.56,376.50 C1496.73,372.10 1494.73,366.92 1494.12,365.00 C1493.50,363.08 1492.10,360.04 1491.01,358.25 L 1489.03 355.00 L 1432.64 355.00 C1388.07,355.00 1376.02,355.27 1375.18,356.28 C1373.13,358.75 1352.50,410.79 1345.84,430.31 C1342.52,440.02 1341.58,444.33 1341.23,451.50 C1340.58,464.63 1341.81,468.20 1349.55,475.68 C1353.07,479.07 1357.54,482.43 1359.49,483.13 C1361.44,483.84 1362.87,484.88 1362.68,485.46 ZM 920.00 484.75 L 919.04 487.00 L 807.19 487.00 C745.67,487.00 695.05,486.71 694.69,486.36 C694.34,486.01 696.40,484.32 699.28,482.60 C705.68,478.78 710.16,472.39 713.23,462.66 L 715.50 455.50 L 715.50 315.50 C715.50,180.95 715.43,175.27 713.61,169.50 C709.96,157.92 705.80,152.70 697.00,148.65 C695.09,147.77 720.60,147.44 804.41,147.25 C864.86,147.11 914.53,147.19 914.77,147.44 C915.29,147.96 916.45,153.07 921.93,179.00 C924.09,189.18 926.28,199.39 926.81,201.70 C928.16,207.65 927.09,207.83 923.55,202.25 C910.38,181.46 892.90,167.72 869.61,159.86 C852.41,154.06 848.14,153.64 801.24,153.27 L 758.99 152.94 L 759.24 231.72 L 759.50 310.50 L 784.50 310.77 C807.02,311.02 810.43,310.83 818.87,308.91 C829.15,306.57 834.36,304.51 840.62,300.28 C845.78,296.79 853.63,287.66 855.21,283.30 C855.86,281.49 856.76,280.00 857.20,280.00 C857.64,280.00 858.00,294.85 858.00,313.00 C858.00,331.15 857.64,346.00 857.20,346.00 C856.76,346.00 855.39,343.93 854.17,341.41 C849.07,330.92 842.58,325.74 828.23,320.71 L 819.50 317.65 L 758.99 316.82 L 759.24 398.66 L 759.50 480.50 L 799.50 480.49 C833.96,480.47 840.75,480.22 848.50,478.67 C866.37,475.10 884.25,468.60 896.37,461.26 C908.83,453.72 922.78,440.65 930.01,429.76 C932.96,425.33 934.41,424.93 933.75,428.75 C932.79,434.25 920.93,482.56 920.00,484.75 ZM 1156.48 486.04 C1155.81,487.11 1073.76,487.42 1072.69,486.36 C1072.34,486.01 1073.96,484.51 1076.30,483.03 C1085.15,477.41 1088.90,470.73 1091.47,456.00 C1092.94,447.56 1093.19,430.20 1093.71,300.75 L 1094.30 155.00 L 1072.46 155.00 C1049.33,155.00 1043.32,155.68 1030.50,159.74 C1010.89,165.96 992.49,179.13 981.65,194.72 C976.97,201.45 975.00,203.34 975.00,201.11 C975.00,199.86 977.84,184.30 978.95,179.50 C979.99,175.01 983.55,156.49 984.48,150.75 L 985.09 147.00 L 1242.92 147.00 L 1243.82 150.75 C1244.31,152.81 1245.25,156.98 1245.91,160.00 C1246.56,163.02 1247.50,167.30 1247.99,169.50 C1250.80,182.12 1253.13,195.98 1252.83,198.38 C1252.51,201.09 1252.41,201.04 1248.50,195.88 C1235.68,178.97 1218.13,166.64 1195.73,158.80 L 1183.50 154.53 L 1159.61 154.18 C1140.52,153.91 1135.55,154.11 1134.87,155.17 C1133.74,156.96 1133.81,436.02 1134.95,447.81 C1135.45,452.93 1136.29,457.66 1136.83,458.31 C1137.36,458.96 1138.52,461.94 1139.39,464.92 C1141.95,473.57 1146.63,479.71 1153.29,483.13 C1155.37,484.20 1156.80,485.51 1156.48,486.04 ZM 650.44 486.10 C649.73,487.24 566.00,487.31 566.00,486.16 C566.00,485.70 567.10,484.82 568.45,484.21 C572.29,482.45 578.65,476.27 581.36,471.65 C582.72,469.33 584.66,464.52 585.67,460.96 C587.40,454.84 587.50,447.28 587.50,316.50 C587.50,310.92 587.50,305.56 587.50,300.41 C587.51,183.74 587.51,173.92 583.87,165.71 C583.38,164.59 582.81,163.50 582.18,162.18 C579.37,156.37 574.64,151.66 569.07,149.12 C565.62,147.56 566.22,147.49 586.68,147.23 C598.33,147.08 617.60,147.08 629.51,147.23 L 651.15 147.50 L 645.82 151.00 C640.11,154.76 634.70,161.87 633.02,167.82 C630.13,178.08 629.95,187.75 630.23,319.50 C630.51,454.26 630.51,454.51 632.66,461.82 C635.45,471.32 640.65,479.13 646.47,482.54 C648.96,484.00 650.75,485.60 650.44,486.10 ZM 1378.28 349.88 C1379.94,351.54 1483.14,351.46 1484.80,349.80 C1486.38,348.22 1486.31,346.48 1484.54,342.65 C1483.74,340.92 1479.52,330.05 1475.16,318.50 C1470.80,306.95 1465.56,293.23 1463.52,288.00 C1459.96,278.90 1454.22,264.02 1448.08,248.00 C1446.50,243.88 1442.57,233.64 1439.35,225.26 C1436.13,216.88 1433.01,210.01 1432.40,210.01 C1431.19,210.00 1430.16,212.22 1423.63,229.00 C1421.17,235.32 1416.60,247.02 1413.49,255.00 C1410.38,262.98 1405.14,276.48 1401.85,285.00 C1398.56,293.52 1394.34,304.33 1392.48,309.00 C1378.03,345.34 1376.93,348.53 1378.28,349.88 Z" fill="rgb(1,1,1)"/>
<path d="M 1201.15 160.83 C1194.68,158.44 1188.11,156.82 1181.50,156.00 C1176.55,155.38 1164.27,155.01 1154.21,155.18 L 1135.92 155.50 L 1135.98 303.90 C1136.01,385.52 1136.30,453.47 1136.62,454.90 C1137.21,457.52 1137.83,459.92 1138.49,462.12 C1137.84,460.27 1137.19,458.75 1136.83,458.31 C1136.29,457.66 1135.45,452.93 1134.95,447.81 C1133.81,436.02 1133.74,156.96 1134.87,155.17 C1135.55,154.11 1140.52,153.91 1159.61,154.18 L 1183.50 154.53 L 1195.73 158.80 C1197.57,159.45 1199.38,160.12 1201.15,160.83 ZM 1250.88 183.80 C1251.09,184.87 1251.31,185.95 1251.51,187.00 C1252.87,193.88 1254.26,200.51 1254.61,201.75 C1254.95,202.99 1254.84,203.99 1254.37,203.97 C1253.28,203.93 1247.00,195.67 1247.00,194.27 C1247.00,194.11 1246.88,193.85 1246.65,193.50 C1247.27,194.29 1247.89,195.08 1248.50,195.88 C1252.41,201.04 1252.51,201.09 1252.83,198.38 C1253.01,196.90 1252.20,191.04 1250.88,183.80 ZM 1244.05 190.41 C1240.00,186.05 1232.65,179.20 1227.81,175.46 C1233.81,179.89 1239.22,184.88 1244.05,190.41 ZM 1139.47 465.18 C1141.64,471.45 1144.25,475.90 1147.64,479.14 C1143.97,475.69 1141.23,471.01 1139.47,465.18 ZM 1245.91 160.00 C1245.25,156.98 1244.31,152.81 1243.82,150.75 C1244.54,153.78 1245.36,157.43 1247.07,165.35 C1246.68,163.54 1246.25,161.60 1245.91,160.00 Z" fill="rgb(92,92,92)"/>
<path d="M 0.00 0.00 L 1635.00 0.00 L 1635.00 641.00 L 0.00 641.00 ZM 692.45 613.96 C714.10,614.94 715.17,614.81 714.49,611.25 C714.30,610.29 714.12,609.16 714.08,608.75 C714.03,608.34 710.96,607.99 707.25,607.98 C692.66,607.94 674.27,604.55 658.50,599.01 C613.63,583.23 566.92,541.33 531.21,484.84 C515.51,459.99 488.77,412.85 463.22,365.00 C456.03,351.52 442.69,327.23 433.57,311.02 C424.46,294.81 417.00,280.97 417.00,280.26 C417.00,279.03 421.84,271.85 450.86,230.00 C479.59,188.57 501.88,161.88 515.75,152.29 C518.64,150.30 521.00,148.29 521.00,147.83 C521.00,147.38 507.05,147.00 490.00,147.00 C472.95,147.00 459.03,147.34 459.06,147.75 C459.09,148.16 461.76,150.43 465.00,152.79 C472.57,158.30 476.35,165.38 476.27,173.92 C476.18,182.97 469.20,196.67 452.55,220.50 C440.34,237.95 413.01,273.20 412.00,272.78 C411.62,272.63 405.17,263.34 397.65,252.15 C370.21,211.27 349.63,185.70 319.58,155.14 C271.03,105.76 218.38,72.80 152.50,50.52 C124.10,40.92 82.80,34.07 43.39,32.43 L 27.28 31.76 L 26.79 34.31 C26.52,35.72 26.57,37.29 26.90,37.81 C27.23,38.32 32.45,39.06 38.50,39.45 C68.13,41.35 92.79,46.71 113.77,55.84 C155.84,74.13 199.47,108.60 235.01,151.62 C262.06,184.38 272.59,199.50 309.72,259.00 C325.68,284.58 341.95,310.45 345.89,316.50 C349.82,322.55 353.75,328.90 354.63,330.60 L 356.23 333.70 L 333.48 364.60 C320.96,381.60 305.75,402.25 299.68,410.50 C272.71,447.11 268.81,451.95 257.21,463.11 C248.79,471.22 242.73,476.06 236.19,479.91 C231.13,482.89 227.00,485.48 227.00,485.66 C227.00,485.85 243.99,485.98 264.75,485.95 C300.35,485.90 302.36,485.80 300.00,484.23 C295.48,481.21 290.73,475.61 288.35,470.51 C286.52,466.58 286.02,463.77 286.01,457.47 C285.99,441.51 287.40,438.79 316.57,398.50 C327.32,383.65 341.36,364.19 347.77,355.25 C356.83,342.62 359.69,339.28 360.59,340.25 C361.65,341.39 366.75,350.01 381.74,376.00 C384.75,381.23 388.21,387.08 389.43,389.00 C390.65,390.92 394.73,397.67 398.50,404.00 C408.77,421.22 430.08,453.78 440.34,467.92 C461.65,497.29 481.18,519.24 503.71,539.14 C546.72,577.14 593.67,599.47 651.50,609.43 C671.01,612.78 674.26,613.15 692.45,613.96 ZM 1362.68 485.46 C1362.87,484.88 1361.44,483.84 1359.49,483.13 C1357.54,482.43 1353.07,479.07 1349.55,475.68 C1341.81,468.20 1340.58,464.63 1341.23,451.50 C1341.58,444.33 1342.52,440.02 1345.84,430.31 C1352.50,410.79 1373.13,358.75 1375.18,356.28 C1376.02,355.27 1388.07,355.00 1432.64,355.00 L 1489.03 355.00 L 1491.01 358.25 C1492.10,360.04 1493.50,363.08 1494.12,365.00 C1494.73,366.92 1496.73,372.10 1498.56,376.50 C1508.68,400.85 1518.60,426.70 1523.68,442.00 C1527.26,452.76 1527.21,461.74 1523.53,468.97 C1519.97,475.96 1515.26,481.81 1511.72,483.65 C1510.19,484.44 1509.20,485.52 1509.53,486.04 C1510.31,487.32 1599.67,487.34 1600.46,486.07 C1600.78,485.55 1598.67,483.56 1595.77,481.63 C1589.43,477.42 1586.73,474.59 1580.70,465.83 C1575.09,457.68 1570.45,448.54 1565.56,436.00 C1563.53,430.77 1559.38,420.20 1556.34,412.50 L 1546.48 387.50 C1544.09,381.45 1539.84,370.42 1537.04,363.00 C1534.24,355.58 1531.08,347.48 1530.03,345.00 C1528.97,342.52 1526.04,335.10 1523.51,328.50 C1520.97,321.90 1517.38,312.67 1515.52,308.00 C1513.66,303.33 1509.39,292.30 1506.03,283.50 C1502.67,274.70 1499.07,265.48 1498.02,263.00 C1496.98,260.52 1491.78,247.25 1486.47,233.50 C1476.31,207.20 1474.15,201.65 1463.72,175.00 C1460.17,165.93 1456.19,155.69 1454.89,152.27 C1452.44,145.81 1450.37,143.77 1449.31,146.77 C1448.98,147.72 1445.90,155.70 1442.48,164.50 C1439.06,173.30 1433.91,186.57 1431.04,194.00 C1423.22,214.24 1421.74,218.09 1414.99,235.50 C1411.58,244.30 1407.23,255.55 1405.33,260.50 C1403.43,265.45 1398.71,277.60 1394.84,287.50 C1390.97,297.40 1386.67,308.42 1385.29,312.00 C1383.91,315.58 1381.23,322.44 1379.34,327.26 C1377.44,332.07 1374.31,340.17 1372.38,345.26 C1366.48,360.76 1354.97,390.50 1342.27,423.00 C1339.80,429.33 1336.73,437.32 1335.44,440.76 C1330.71,453.40 1325.89,461.04 1316.89,470.11 C1311.59,475.46 1306.14,479.90 1302.86,481.55 C1298.29,483.85 1297.07,484.42 1297.05,485.04 C1297.04,485.26 1297.18,485.49 1297.38,485.80 C1297.41,485.85 1297.44,485.90 1297.47,485.95 C1298.38,487.42 1362.19,486.94 1362.68,485.46 ZM 920.00 484.75 C920.93,482.56 932.79,434.25 933.75,428.75 C934.41,424.93 932.96,425.33 930.01,429.76 C922.78,440.65 908.83,453.72 896.37,461.26 C884.25,468.60 866.37,475.10 848.50,478.67 C840.75,480.22 833.96,480.47 799.50,480.49 L 759.50 480.50 L 759.24 398.66 L 758.99 316.82 L 819.50 317.65 L 828.23 320.71 C842.58,325.74 849.07,330.92 854.17,341.41 C855.39,343.93 856.76,346.00 857.20,346.00 C857.64,346.00 858.00,331.15 858.00,313.00 C858.00,294.85 857.64,280.00 857.20,280.00 C856.76,280.00 855.86,281.49 855.21,283.30 C853.63,287.66 845.78,296.79 840.62,300.28 C834.36,304.51 829.15,306.57 818.87,308.91 C810.43,310.83 807.02,311.02 784.50,310.77 L 759.50 310.50 L 759.24 231.72 L 758.99 152.94 L 801.24 153.27 C848.14,153.64 852.41,154.06 869.61,159.86 C892.90,167.72 910.38,181.46 923.55,202.25 C927.09,207.83 928.16,207.65 926.81,201.70 C926.28,199.39 924.09,189.18 921.93,179.00 C916.45,153.07 915.29,147.96 914.77,147.44 C914.53,147.19 864.86,147.11 804.41,147.25 C720.60,147.44 695.09,147.77 697.00,148.65 C705.80,152.70 709.96,157.92 713.61,169.50 C715.43,175.27 715.50,180.95 715.50,315.50 L 715.50 455.50 L 713.23 462.66 C710.16,472.39 705.68,478.78 699.28,482.60 C696.40,484.32 694.34,486.01 694.69,486.36 C695.05,486.71 745.67,487.00 807.19,487.00 L 919.04 487.00 ZM 1156.48 486.04 C1156.80,485.51 1155.37,484.20 1153.29,483.13 C1151.21,482.06 1149.33,480.73 1147.64,479.14 L 1147.64 479.14 C1144.24,475.90 1141.64,471.44 1139.47,465.18 C1139.45,465.09 1139.42,465.01 1139.39,464.92 C1139.11,463.96 1138.80,463.00 1138.49,462.12 C1137.83,459.92 1137.21,457.52 1136.62,454.90 C1136.30,453.47 1136.01,385.52 1135.98,303.90 L 1135.92 155.50 L 1154.21 155.18 C1164.27,155.01 1176.55,155.38 1181.50,156.00 C1188.11,156.82 1194.68,158.44 1201.15,160.83 C1211.05,164.76 1219.94,169.63 1227.81,175.46 C1232.65,179.20 1240.00,186.05 1244.05,190.41 C1244.94,191.43 1245.80,192.46 1246.65,193.51 C1246.88,193.85 1247.00,194.11 1247.00,194.27 C1247.00,195.67 1253.28,203.93 1254.37,203.97 C1254.84,203.99 1254.95,202.99 1254.61,201.75 C1254.26,200.51 1252.87,193.88 1251.51,187.00 C1251.31,185.95 1251.09,184.87 1250.88,183.80 C1250.07,179.32 1249.06,174.32 1247.99,169.50 C1247.76,168.46 1247.43,166.96 1247.07,165.35 C1245.36,157.43 1244.54,153.78 1243.82,150.75 L 1242.92 147.00 L 985.09 147.00 L 984.48 150.75 C983.55,156.49 979.99,175.01 978.95,179.50 C977.84,184.30 975.00,199.86 975.00,201.11 C975.00,203.34 976.97,201.45 981.65,194.72 C992.49,179.13 1010.89,165.96 1030.50,159.74 C1043.32,155.68 1049.33,155.00 1072.46,155.00 L 1094.30 155.00 L 1093.71 300.75 C1093.19,430.20 1092.94,447.56 1091.47,456.00 C1088.90,470.73 1085.15,477.41 1076.30,483.03 C1073.96,484.51 1072.34,486.01 1072.69,486.36 C1073.76,487.42 1155.81,487.11 1156.48,486.04 ZM 650.44 486.10 C650.75,485.60 648.96,484.00 646.47,482.54 C640.65,479.13 635.45,471.32 632.66,461.82 C630.51,454.51 630.51,454.26 630.23,319.50 C629.95,187.75 630.13,178.08 633.02,167.82 C634.70,161.87 640.11,154.76 645.82,151.00 L 651.15 147.50 L 629.51 147.23 C617.60,147.08 598.33,147.08 586.68,147.23 C566.22,147.49 565.62,147.56 569.07,149.12 C574.64,151.66 579.37,156.37 582.18,162.18 C582.81,163.50 583.38,164.59 583.87,165.71 C587.51,173.92 587.51,183.74 587.50,300.41 C587.50,305.56 587.50,310.92 587.50,316.50 C587.50,447.28 587.40,454.84 585.67,460.96 C584.66,464.52 582.72,469.33 581.36,471.65 C578.65,476.27 572.29,482.45 568.45,484.21 C567.10,484.82 566.00,485.70 566.00,486.16 C566.00,487.31 649.73,487.24 650.44,486.10 ZM 1378.28 349.88 C1376.93,348.53 1378.03,345.34 1392.48,309.00 C1394.34,304.33 1398.56,293.52 1401.85,285.00 C1405.14,276.48 1410.38,262.98 1413.49,255.00 C1416.60,247.02 1421.17,235.32 1423.63,229.00 C1430.16,212.22 1431.19,210.00 1432.40,210.01 C1433.01,210.01 1436.13,216.88 1439.35,225.26 C1442.57,233.64 1446.50,243.88 1448.08,248.00 C1454.22,264.02 1459.96,278.90 1463.52,288.00 C1465.56,293.23 1470.80,306.95 1475.16,318.50 C1479.52,330.05 1483.74,340.92 1484.54,342.65 C1486.31,346.48 1486.38,348.22 1484.80,349.80 C1483.14,351.46 1379.94,351.54 1378.28,349.88 Z" fill="rgb(237,237,237)"/>
<path d="M 692.45 613.96 C674.26,613.15 671.01,612.78 651.50,609.43 C593.67,599.47 546.72,577.14 503.71,539.14 C481.18,519.24 461.65,497.29 440.34,467.92 C430.08,453.78 408.77,421.22 398.50,404.00 C394.73,397.67 390.65,390.92 389.43,389.00 C388.21,387.08 384.75,381.23 381.74,376.00 C366.75,350.01 361.65,341.39 360.59,340.25 C359.69,339.28 356.83,342.62 347.77,355.25 C341.36,364.19 327.32,383.65 316.57,398.50 C287.40,438.79 285.99,441.51 286.01,457.47 C286.02,463.77 286.52,466.58 288.35,470.51 C290.73,475.61 295.48,481.21 300.00,484.23 C302.36,485.80 300.35,485.90 264.75,485.95 C243.99,485.98 227.00,485.85 227.00,485.66 C227.00,485.48 231.13,482.89 236.19,479.91 C242.73,476.06 248.79,471.22 257.21,463.11 C268.81,451.95 272.71,447.11 299.68,410.50 C305.75,402.25 320.96,381.60 333.48,364.60 L 356.23 333.70 L 354.63 330.60 C353.75,328.90 349.82,322.55 345.89,316.50 C341.95,310.45 325.68,284.58 309.72,259.00 C272.59,199.50 262.06,184.38 235.01,151.62 C199.47,108.60 155.84,74.13 113.77,55.84 C92.79,46.71 68.13,41.35 38.50,39.45 C32.45,39.06 27.23,38.32 26.90,37.81 C26.57,37.29 26.52,35.72 26.79,34.31 L 27.28 31.76 L 43.39 32.43 C82.80,34.07 124.10,40.92 152.50,50.52 C218.38,72.80 271.03,105.76 319.58,155.14 C349.63,185.70 370.21,211.27 397.65,252.15 C405.17,263.34 411.62,272.63 412.00,272.78 C413.01,273.20 440.34,237.95 452.55,220.50 C469.20,196.67 476.18,182.97 476.27,173.92 C476.35,165.38 472.57,158.30 465.00,152.79 C461.76,150.43 459.09,148.16 459.06,147.75 C459.03,147.34 472.95,147.00 490.00,147.00 C507.05,147.00 521.00,147.38 521.00,147.83 C521.00,148.29 518.64,150.30 515.75,152.29 C501.88,161.88 479.59,188.57 450.86,230.00 C421.84,271.85 417.00,279.03 417.00,280.26 C417.00,280.97 424.46,294.81 433.57,311.02 C442.69,327.23 456.03,351.52 463.22,365.00 C488.77,412.85 515.51,459.99 531.21,484.84 C566.92,541.33 613.63,583.23 658.50,599.01 C674.27,604.55 692.66,607.94 707.25,607.98 C710.96,607.99 714.03,608.34 714.08,608.75 C714.12,609.16 714.30,610.29 714.49,611.25 C715.17,614.81 714.10,614.94 692.45,613.96 Z" fill="rgb(252,110,78)"/>
</g>
</svg>